# Tiled2Unity generated file. Do not modify by hand.
# Wavefront file for 'Test_Area_mesh_0003.obj'

# Vertices (Count = 472)
v -336 -32 0
v -352 -32 0
v -352 -16 0
v -336 -16 0
v -320 -32 0
v -336 -32 0
v -336 -16 0
v -320 -16 0
v -304 -32 0
v -320 -32 0
v -320 -16 0
v -304 -16 0
v -352 -48 0
v -368 -48 0
v -368 -32 0
v -352 -32 0
v -336 -48 0
v -352 -48 0
v -352 -32 0
v -336 -32 0
v -320 -48 0
v -336 -48 0
v -336 -32 0
v -320 -32 0
v -304 -48 0
v -320 -48 0
v -320 -32 0
v -304 -32 0
v -288 -48 0
v -304 -48 0
v -304 -32 0
v -288 -32 0
v -368 -64 0
v -384 -64 0
v -384 -48 0
v -368 -48 0
v -352 -64 0
v -368 -64 0
v -368 -48 0
v -352 -48 0
v -336 -64 0
v -352 -64 0
v -352 -48 0
v -336 -48 0
v -320 -64 0
v -336 -64 0
v -336 -48 0
v -320 -48 0
v -304 -64 0
v -320 -64 0
v -320 -48 0
v -304 -48 0
v -288 -64 0
v -304 -64 0
v -304 -48 0
v -288 -48 0
v -272 -64 0
v -288 -64 0
v -288 -48 0
v -272 -48 0
v -384 -80 0
v -400 -80 0
v -400 -64 0
v -384 -64 0
v -368 -80 0
v -384 -80 0
v -384 -64 0
v -368 -64 0
v -352 -80 0
v -368 -80 0
v -368 -64 0
v -352 -64 0
v -336 -80 0
v -352 -80 0
v -352 -64 0
v -336 -64 0
v -320 -80 0
v -336 -80 0
v -336 -64 0
v -320 -64 0
v -304 -80 0
v -320 -80 0
v -320 -64 0
v -304 -64 0
v -288 -80 0
v -304 -80 0
v -304 -64 0
v -288 -64 0
v -272 -80 0
v -288 -80 0
v -288 -64 0
v -272 -64 0
v -256 -80 0
v -272 -80 0
v -272 -64 0
v -256 -64 0
v -400 -96 0
v -416 -96 0
v -416 -80 0
v -400 -80 0
v -384 -96 0
v -400 -96 0
v -400 -80 0
v -384 -80 0
v -368 -96 0
v -384 -96 0
v -384 -80 0
v -368 -80 0
v -352 -96 0
v -368 -96 0
v -368 -80 0
v -352 -80 0
v -336 -96 0
v -352 -96 0
v -352 -80 0
v -336 -80 0
v -320 -96 0
v -336 -96 0
v -336 -80 0
v -320 -80 0
v -304 -96 0
v -320 -96 0
v -320 -80 0
v -304 -80 0
v -288 -96 0
v -304 -96 0
v -304 -80 0
v -288 -80 0
v -272 -96 0
v -288 -96 0
v -288 -80 0
v -272 -80 0
v -256 -96 0
v -272 -96 0
v -272 -80 0
v -256 -80 0
v -240 -96 0
v -256 -96 0
v -256 -80 0
v -240 -80 0
v -400 -112 0
v -416 -112 0
v -416 -96 0
v -400 -96 0
v -384 -112 0
v -400 -112 0
v -400 -96 0
v -384 -96 0
v -368 -112 0
v -384 -112 0
v -384 -96 0
v -368 -96 0
v -352 -112 0
v -368 -112 0
v -368 -96 0
v -352 -96 0
v -336 -112 0
v -352 -112 0
v -352 -96 0
v -336 -96 0
v -320 -112 0
v -336 -112 0
v -336 -96 0
v -320 -96 0
v -304 -112 0
v -320 -112 0
v -320 -96 0
v -304 -96 0
v -288 -112 0
v -304 -112 0
v -304 -96 0
v -288 -96 0
v -272 -112 0
v -288 -112 0
v -288 -96 0
v -272 -96 0
v -256 -112 0
v -272 -112 0
v -272 -96 0
v -256 -96 0
v -240 -112 0
v -256 -112 0
v -256 -96 0
v -240 -96 0
v -672 -128 0
v -688 -128 0
v -688 -112 0
v -672 -112 0
v -400 -128 0
v -416 -128 0
v -416 -112 0
v -400 -112 0
v -384 -128 0
v -400 -128 0
v -400 -112 0
v -384 -112 0
v -368 -128 0
v -384 -128 0
v -384 -112 0
v -368 -112 0
v -352 -128 0
v -368 -128 0
v -368 -112 0
v -352 -112 0
v -336 -128 0
v -352 -128 0
v -352 -112 0
v -336 -112 0
v -304 -128 0
v -320 -128 0
v -320 -112 0
v -304 -112 0
v -288 -128 0
v -304 -128 0
v -304 -112 0
v -288 -112 0
v -272 -128 0
v -288 -128 0
v -288 -112 0
v -272 -112 0
v -256 -128 0
v -272 -128 0
v -272 -112 0
v -256 -112 0
v -240 -128 0
v -256 -128 0
v -256 -112 0
v -240 -112 0
v -672 -144 0
v -688 -144 0
v -688 -128 0
v -672 -128 0
v -400 -144 0
v -416 -144 0
v -416 -128 0
v -400 -128 0
v -384 -144 0
v -400 -144 0
v -400 -128 0
v -384 -128 0
v -368 -144 0
v -384 -144 0
v -384 -128 0
v -368 -128 0
v -352 -144 0
v -368 -144 0
v -368 -128 0
v -352 -128 0
v -320 -144 0
v -336 -144 0
v -336 -128 0
v -320 -128 0
v -288 -144 0
v -304 -144 0
v -304 -128 0
v -288 -128 0
v -272 -144 0
v -288 -144 0
v -288 -128 0
v -272 -128 0
v -256 -144 0
v -272 -144 0
v -272 -128 0
v -256 -128 0
v -240 -144 0
v -256 -144 0
v -256 -128 0
v -240 -128 0
v -592 -160 0
v -608 -160 0
v -608 -144 0
v -592 -144 0
v -400 -160 0
v -416 -160 0
v -416 -144 0
v -400 -144 0
v -384 -160 0
v -400 -160 0
v -400 -144 0
v -384 -144 0
v -368 -160 0
v -384 -160 0
v -384 -144 0
v -368 -144 0
v -272 -160 0
v -288 -160 0
v -288 -144 0
v -272 -144 0
v -256 -160 0
v -272 -160 0
v -272 -144 0
v -256 -144 0
v -240 -160 0
v -256 -160 0
v -256 -144 0
v -240 -144 0
v -592 -176 0
v -608 -176 0
v -608 -160 0
v -592 -160 0
v -400 -176 0
v -416 -176 0
v -416 -160 0
v -400 -160 0
v -384 -176 0
v -400 -176 0
v -400 -160 0
v -384 -160 0
v -352 -176 0
v -368 -176 0
v -368 -160 0
v -352 -160 0
v -288 -176 0
v -304 -176 0
v -304 -160 0
v -288 -160 0
v -256 -176 0
v -272 -176 0
v -272 -160 0
v -256 -160 0
v -240 -176 0
v -256 -176 0
v -256 -160 0
v -240 -160 0
v -864 -192 0
v -880 -192 0
v -880 -176 0
v -864 -176 0
v -720 -192 0
v -736 -192 0
v -736 -176 0
v -720 -176 0
v -400 -192 0
v -416 -192 0
v -416 -176 0
v -400 -176 0
v -352 -192 0
v -368 -192 0
v -368 -176 0
v -352 -176 0
v -288 -192 0
v -304 -192 0
v -304 -176 0
v -288 -176 0
v -240 -192 0
v -256 -192 0
v -256 -176 0
v -240 -176 0
v -864 -208 0
v -880 -208 0
v -880 -192 0
v -864 -192 0
v -528 -208 0
v -544 -208 0
v -544 -192 0
v -528 -192 0
v -432 -208 0
v -448 -208 0
v -448 -192 0
v -432 -192 0
v -352 -208 0
v -368 -208 0
v -368 -192 0
v -352 -192 0
v -288 -208 0
v -304 -208 0
v -304 -192 0
v -288 -192 0
v -528 -224 0
v -544 -224 0
v -544 -208 0
v -528 -208 0
v -432 -224 0
v -448 -224 0
v -448 -208 0
v -432 -208 0
v -768 -240 0
v -784 -240 0
v -784 -224 0
v -768 -224 0
v -608 -240 0
v -624 -240 0
v -624 -224 0
v -608 -224 0
v -368 -240 0
v -384 -240 0
v -384 -224 0
v -368 -224 0
v -272 -240 0
v -288 -240 0
v -288 -224 0
v -272 -224 0
v -768 -256 0
v -784 -256 0
v -784 -240 0
v -768 -240 0
v -320 -256 0
v -336 -256 0
v -336 -240 0
v -320 -240 0
v -512 -272 0
v -528 -272 0
v -528 -256 0
v -512 -256 0
v -560 -288 0
v -576 -288 0
v -576 -272 0
v -560 -272 0
v -560 -304 0
v -576 -304 0
v -576 -288 0
v -560 -288 0
v -736 -320 0
v -752 -320 0
v -752 -304 0
v -736 -304 0
v -432 -320 0
v -448 -320 0
v -448 -304 0
v -432 -304 0
v -848 -336 0
v -864 -336 0
v -864 -320 0
v -848 -320 0
v -768 -336 0
v -784 -336 0
v -784 -320 0
v -768 -320 0
v -432 -336 0
v -448 -336 0
v -448 -320 0
v -432 -320 0
v -848 -352 0
v -864 -352 0
v -864 -336 0
v -848 -336 0
v -768 -352 0
v -784 -352 0
v -784 -336 0
v -768 -336 0
v -496 -352 0
v -512 -352 0
v -512 -336 0
v -496 -336 0
v -560 -368 0
v -576 -368 0
v -576 -352 0
v -560 -352 0
v -496 -368 0
v -512 -368 0
v -512 -352 0
v -496 -352 0
v -672 -384 0
v -688 -384 0
v -688 -368 0
v -672 -368 0
v -672 -400 0
v -688 -400 0
v -688 -384 0
v -672 -384 0
v -576 -416 0
v -592 -416 0
v -592 -400 0
v -576 -400 0
v -576 -432 0
v -592 -432 0
v -592 -416 0
v -576 -416 0
v -736 -448 0
v -752 -448 0
v -752 -432 0
v -736 -432 0

# Texture cooridinates (Count = 96)
vt 0.4040477 0.2909966
vt 0.4203325 0.2909966
vt 0.4203325 0.3211707
vt 0.4040477 0.3211707
vt 0.3513618 0.1940384
vt 0.3676465 0.1940384
vt 0.3676465 0.2242125
vt 0.3513618 0.2242125
vt 0.3864857 0.2909966
vt 0.4027705 0.2909966
vt 0.4027705 0.3211707
vt 0.3864857 0.3211707
vt 0.3689237 0.2909966
vt 0.3852085 0.2909966
vt 0.3852085 0.3211707
vt 0.3689237 0.3211707
vt 0.4216097 0.1940384
vt 0.4378945 0.1940384
vt 0.4378945 0.2242125
vt 0.4216097 0.2242125
vt 0.3689237 0.1940384
vt 0.3852085 0.1940384
vt 0.3852085 0.2242125
vt 0.3689237 0.2242125
vt 0.4040477 0.1940384
vt 0.4203325 0.1940384
vt 0.4203325 0.2242125
vt 0.4040477 0.2242125
vt 0.3513618 0.2909966
vt 0.3676465 0.2909966
vt 0.3676465 0.3211707
vt 0.3513618 0.3211707
vt 0.5972295 0.2909966
vt 0.6135143 0.2909966
vt 0.6135143 0.3211707
vt 0.5972295 0.3211707
vt 0.3689237 0.2586772
vt 0.3852085 0.2586772
vt 0.3852085 0.2888513
vt 0.3689237 0.2888513
vt 0.3864857 0.1940384
vt 0.4027705 0.1940384
vt 0.4027705 0.2242125
vt 0.3864857 0.2242125
vt 0.5972295 0.2586772
vt 0.6135143 0.2586772
vt 0.6135143 0.2888513
vt 0.5972295 0.2888513
vt 0.3162378 0.6465099
vt 0.3325226 0.6465099
vt 0.3325226 0.676684
vt 0.3162378 0.676684
vt 0.3689237 0.2263578
vt 0.3852085 0.2263578
vt 0.3852085 0.2565319
vt 0.3689237 0.2565319
vt 0.3513618 0.2263578
vt 0.3676465 0.2263578
vt 0.3676465 0.2565319
vt 0.3513618 0.2565319
vt 0.3162378 0.6141905
vt 0.3325226 0.6141905
vt 0.3325226 0.6443646
vt 0.3162378 0.6443646
vt 0.8079733 0.9697038
vt 0.8242581 0.9697038
vt 0.8242581 0.9998779
vt 0.8079733 0.9998779
vt 0.8782213 0.9697038
vt 0.894506 0.9697038
vt 0.894506 0.9998779
vt 0.8782213 0.9998779
vt 0.5972295 0.2263578
vt 0.6135143 0.2263578
vt 0.6135143 0.2565319
vt 0.5972295 0.2565319
vt 0.2635518 0.6788293
vt 0.2798366 0.6788293
vt 0.2798366 0.7090034
vt 0.2635518 0.7090034
vt 0.8782213 0.9373844
vt 0.894506 0.9373844
vt 0.894506 0.9675586
vt 0.8782213 0.9675586
vt 0.8782213 0.9050651
vt 0.894506 0.9050651
vt 0.894506 0.9352391
vt 0.8782213 0.9352391
vt 0.8255353 0.8404263
vt 0.8418201 0.8404263
vt 0.8418201 0.8706003
vt 0.8255353 0.8706003
vt 0.6850394 0.9050651
vt 0.7013242 0.9050651
vt 0.7013242 0.9352391
vt 0.6850394 0.9352391

# Normal
vn 0 0 -1

# Mesh description
g Test_Area_mesh_0003

# Faces
f 1/1/1 2/2/1 3/3/1 4/4/1
f 5/5/1 6/6/1 7/7/1 8/8/1
f 9/9/1 10/10/1 11/11/1 12/12/1
f 13/13/1 14/14/1 15/15/1 16/16/1
f 17/17/1 18/18/1 19/19/1 20/20/1
f 21/21/1 22/22/1 23/23/1 24/24/1
f 25/25/1 26/26/1 27/27/1 28/28/1
f 29/29/1 30/30/1 31/31/1 32/32/1
f 33/13/1 34/14/1 35/15/1 36/16/1
f 37/17/1 38/18/1 39/19/1 40/20/1
f 41/17/1 42/18/1 43/19/1 44/20/1
f 45/21/1 46/22/1 47/23/1 48/24/1
f 49/25/1 50/26/1 51/27/1 52/28/1
f 53/25/1 54/26/1 55/27/1 56/28/1
f 57/29/1 58/30/1 59/31/1 60/32/1
f 61/13/1 62/14/1 63/15/1 64/16/1
f 65/17/1 66/18/1 67/19/1 68/20/1
f 69/17/1 70/18/1 71/19/1 72/20/1
f 73/17/1 74/18/1 75/19/1 76/20/1
f 77/21/1 78/22/1 79/23/1 80/24/1
f 81/25/1 82/26/1 83/27/1 84/28/1
f 85/25/1 86/26/1 87/27/1 88/28/1
f 89/25/1 90/26/1 91/27/1 92/28/1
f 93/29/1 94/30/1 95/31/1 96/32/1
f 97/13/1 98/14/1 99/15/1 100/16/1
f 101/17/1 102/18/1 103/19/1 104/20/1
f 105/17/1 106/18/1 107/19/1 108/20/1
f 109/17/1 110/18/1 111/19/1 112/20/1
f 113/17/1 114/18/1 115/19/1 116/20/1
f 117/21/1 118/22/1 119/23/1 120/24/1
f 121/25/1 122/26/1 123/27/1 124/28/1
f 125/25/1 126/26/1 127/27/1 128/28/1
f 129/25/1 130/26/1 131/27/1 132/28/1
f 133/25/1 134/26/1 135/27/1 136/28/1
f 137/33/1 138/34/1 139/35/1 140/36/1
f 141/37/1 142/38/1 143/39/1 144/40/1
f 145/17/1 146/18/1 147/19/1 148/20/1
f 149/17/1 150/18/1 151/19/1 152/20/1
f 153/17/1 154/18/1 155/19/1 156/20/1
f 157/17/1 158/18/1 159/19/1 160/20/1
f 161/41/1 162/42/1 163/43/1 164/44/1
f 165/25/1 166/26/1 167/27/1 168/28/1
f 169/25/1 170/26/1 171/27/1 172/28/1
f 173/25/1 174/26/1 175/27/1 176/28/1
f 177/25/1 178/26/1 179/27/1 180/28/1
f 181/45/1 182/46/1 183/47/1 184/48/1
f 185/49/1 186/50/1 187/51/1 188/52/1
f 189/37/1 190/38/1 191/39/1 192/40/1
f 193/17/1 194/18/1 195/19/1 196/20/1
f 197/17/1 198/18/1 199/19/1 200/20/1
f 201/17/1 202/18/1 203/19/1 204/20/1
f 205/53/1 206/54/1 207/55/1 208/56/1
f 209/57/1 210/58/1 211/59/1 212/60/1
f 213/25/1 214/26/1 215/27/1 216/28/1
f 217/25/1 218/26/1 219/27/1 220/28/1
f 221/25/1 222/26/1 223/27/1 224/28/1
f 225/45/1 226/46/1 227/47/1 228/48/1
f 229/61/1 230/62/1 231/63/1 232/64/1
f 233/37/1 234/38/1 235/39/1 236/40/1
f 237/17/1 238/18/1 239/19/1 240/20/1
f 241/17/1 242/18/1 243/19/1 244/20/1
f 245/53/1 246/54/1 247/55/1 248/56/1
f 249/65/1 250/66/1 251/67/1 252/68/1
f 253/57/1 254/58/1 255/59/1 256/60/1
f 257/25/1 258/26/1 259/27/1 260/28/1
f 261/25/1 262/26/1 263/27/1 264/28/1
f 265/45/1 266/46/1 267/47/1 268/48/1
f 269/49/1 270/50/1 271/51/1 272/52/1
f 273/37/1 274/38/1 275/39/1 276/40/1
f 277/17/1 278/18/1 279/19/1 280/20/1
f 281/53/1 282/54/1 283/55/1 284/56/1
f 285/57/1 286/58/1 287/59/1 288/60/1
f 289/25/1 290/26/1 291/27/1 292/28/1
f 293/45/1 294/46/1 295/47/1 296/48/1
f 297/61/1 298/62/1 299/63/1 300/64/1
f 301/37/1 302/38/1 303/39/1 304/40/1
f 305/53/1 306/54/1 307/55/1 308/56/1
f 309/69/1 310/70/1 311/71/1 312/72/1
f 313/69/1 314/70/1 315/71/1 316/72/1
f 317/73/1 318/74/1 319/75/1 320/76/1
f 321/45/1 322/46/1 323/47/1 324/48/1
f 325/49/1 326/50/1 327/51/1 328/52/1
f 329/77/1 330/78/1 331/79/1 332/80/1
f 333/53/1 334/54/1 335/55/1 336/56/1
f 337/81/1 338/82/1 339/83/1 340/84/1
f 341/81/1 342/82/1 343/83/1 344/84/1
f 345/73/1 346/74/1 347/75/1 348/76/1
f 349/61/1 350/62/1 351/63/1 352/64/1
f 353/49/1 354/50/1 355/51/1 356/52/1
f 357/49/1 358/50/1 359/51/1 360/52/1
f 361/85/1 362/86/1 363/87/1 364/88/1
f 365/85/1 366/86/1 367/87/1 368/88/1
f 369/61/1 370/62/1 371/63/1 372/64/1
f 373/61/1 374/62/1 375/63/1 376/64/1
f 377/49/1 378/50/1 379/51/1 380/52/1
f 381/77/1 382/78/1 383/79/1 384/80/1
f 385/89/1 386/90/1 387/91/1 388/92/1
f 389/89/1 390/90/1 391/91/1 392/92/1
f 393/61/1 394/62/1 395/63/1 396/64/1
f 397/93/1 398/94/1 399/95/1 400/96/1
f 401/77/1 402/78/1 403/79/1 404/80/1
f 405/49/1 406/50/1 407/51/1 408/52/1
f 409/61/1 410/62/1 411/63/1 412/64/1
f 413/77/1 414/78/1 415/79/1 416/80/1
f 417/49/1 418/50/1 419/51/1 420/52/1
f 421/49/1 422/50/1 423/51/1 424/52/1
f 425/49/1 426/50/1 427/51/1 428/52/1
f 429/61/1 430/62/1 431/63/1 432/64/1
f 433/61/1 434/62/1 435/63/1 436/64/1
f 437/61/1 438/62/1 439/63/1 440/64/1
f 441/49/1 442/50/1 443/51/1 444/52/1
f 445/77/1 446/78/1 447/79/1 448/80/1
f 449/61/1 450/62/1 451/63/1 452/64/1
f 453/49/1 454/50/1 455/51/1 456/52/1
f 457/61/1 458/62/1 459/63/1 460/64/1
f 461/49/1 462/50/1 463/51/1 464/52/1
f 465/61/1 466/62/1 467/63/1 468/64/1
f 469/77/1 470/78/1 471/79/1 472/80/1

