# Tiled2Unity generated file. Do not modify by hand.
# Wavefront file for 'Test_Area_mesh_0002.obj'

# Vertices (Count = 596)
v -912 -128 0
v -928 -128 0
v -928 -112 0
v -912 -112 0
v -896 -128 0
v -912 -128 0
v -912 -112 0
v -896 -112 0
v -880 -128 0
v -896 -128 0
v -896 -112 0
v -880 -112 0
v -864 -128 0
v -880 -128 0
v -880 -112 0
v -864 -112 0
v -848 -128 0
v -864 -128 0
v -864 -112 0
v -848 -112 0
v -832 -128 0
v -848 -128 0
v -848 -112 0
v -832 -112 0
v -816 -128 0
v -832 -128 0
v -832 -112 0
v -816 -112 0
v -800 -128 0
v -816 -128 0
v -816 -112 0
v -800 -112 0
v -912 -144 0
v -928 -144 0
v -928 -128 0
v -912 -128 0
v -896 -144 0
v -912 -144 0
v -912 -128 0
v -896 -128 0
v -880 -144 0
v -896 -144 0
v -896 -128 0
v -880 -128 0
v -864 -144 0
v -880 -144 0
v -880 -128 0
v -864 -128 0
v -848 -144 0
v -864 -144 0
v -864 -128 0
v -848 -128 0
v -832 -144 0
v -848 -144 0
v -848 -128 0
v -832 -128 0
v -816 -144 0
v -832 -144 0
v -832 -128 0
v -816 -128 0
v -800 -144 0
v -816 -144 0
v -816 -128 0
v -800 -128 0
v -784 -144 0
v -800 -144 0
v -800 -128 0
v -784 -128 0
v -768 -144 0
v -784 -144 0
v -784 -128 0
v -768 -128 0
v -912 -160 0
v -928 -160 0
v -928 -144 0
v -912 -144 0
v -896 -160 0
v -912 -160 0
v -912 -144 0
v -896 -144 0
v -880 -160 0
v -896 -160 0
v -896 -144 0
v -880 -144 0
v -864 -160 0
v -880 -160 0
v -880 -144 0
v -864 -144 0
v -848 -160 0
v -864 -160 0
v -864 -144 0
v -848 -144 0
v -832 -160 0
v -848 -160 0
v -848 -144 0
v -832 -144 0
v -816 -160 0
v -832 -160 0
v -832 -144 0
v -816 -144 0
v -800 -160 0
v -816 -160 0
v -816 -144 0
v -800 -144 0
v -784 -160 0
v -800 -160 0
v -800 -144 0
v -784 -144 0
v -768 -160 0
v -784 -160 0
v -784 -144 0
v -768 -144 0
v -752 -160 0
v -768 -160 0
v -768 -144 0
v -752 -144 0
v -912 -176 0
v -928 -176 0
v -928 -160 0
v -912 -160 0
v -896 -176 0
v -912 -176 0
v -912 -160 0
v -896 -160 0
v -880 -176 0
v -896 -176 0
v -896 -160 0
v -880 -160 0
v -832 -176 0
v -848 -176 0
v -848 -160 0
v -832 -160 0
v -816 -176 0
v -832 -176 0
v -832 -160 0
v -816 -160 0
v -800 -176 0
v -816 -176 0
v -816 -160 0
v -800 -160 0
v -784 -176 0
v -800 -176 0
v -800 -160 0
v -784 -160 0
v -768 -176 0
v -784 -176 0
v -784 -160 0
v -768 -160 0
v -752 -176 0
v -768 -176 0
v -768 -160 0
v -752 -160 0
v -736 -176 0
v -752 -176 0
v -752 -160 0
v -736 -160 0
v -928 -192 0
v -944 -192 0
v -944 -176 0
v -928 -176 0
v -912 -192 0
v -928 -192 0
v -928 -176 0
v -912 -176 0
v -896 -192 0
v -912 -192 0
v -912 -176 0
v -896 -176 0
v -880 -192 0
v -896 -192 0
v -896 -176 0
v -880 -176 0
v -800 -192 0
v -816 -192 0
v -816 -176 0
v -800 -176 0
v -784 -192 0
v -800 -192 0
v -800 -176 0
v -784 -176 0
v -768 -192 0
v -784 -192 0
v -784 -176 0
v -768 -176 0
v -752 -192 0
v -768 -192 0
v -768 -176 0
v -752 -176 0
v -736 -192 0
v -752 -192 0
v -752 -176 0
v -736 -176 0
v -928 -208 0
v -944 -208 0
v -944 -192 0
v -928 -192 0
v -912 -208 0
v -928 -208 0
v -928 -192 0
v -912 -192 0
v -896 -208 0
v -912 -208 0
v -912 -192 0
v -896 -192 0
v -880 -208 0
v -896 -208 0
v -896 -192 0
v -880 -192 0
v -784 -208 0
v -800 -208 0
v -800 -192 0
v -784 -192 0
v -768 -208 0
v -784 -208 0
v -784 -192 0
v -768 -192 0
v -752 -208 0
v -768 -208 0
v -768 -192 0
v -752 -192 0
v -736 -208 0
v -752 -208 0
v -752 -192 0
v -736 -192 0
v -720 -208 0
v -736 -208 0
v -736 -192 0
v -720 -192 0
v -928 -224 0
v -944 -224 0
v -944 -208 0
v -928 -208 0
v -912 -224 0
v -928 -224 0
v -928 -208 0
v -912 -208 0
v -896 -224 0
v -912 -224 0
v -912 -208 0
v -896 -208 0
v -880 -224 0
v -896 -224 0
v -896 -208 0
v -880 -208 0
v -752 -224 0
v -768 -224 0
v -768 -208 0
v -752 -208 0
v -736 -224 0
v -752 -224 0
v -752 -208 0
v -736 -208 0
v -720 -224 0
v -736 -224 0
v -736 -208 0
v -720 -208 0
v -928 -240 0
v -944 -240 0
v -944 -224 0
v -928 -224 0
v -912 -240 0
v -928 -240 0
v -928 -224 0
v -912 -224 0
v -896 -240 0
v -912 -240 0
v -912 -224 0
v -896 -224 0
v -752 -240 0
v -768 -240 0
v -768 -224 0
v -752 -224 0
v -736 -240 0
v -752 -240 0
v -752 -224 0
v -736 -224 0
v -720 -240 0
v -736 -240 0
v -736 -224 0
v -720 -224 0
v -704 -240 0
v -720 -240 0
v -720 -224 0
v -704 -224 0
v -928 -256 0
v -944 -256 0
v -944 -240 0
v -928 -240 0
v -912 -256 0
v -928 -256 0
v -928 -240 0
v -912 -240 0
v -896 -256 0
v -912 -256 0
v -912 -240 0
v -896 -240 0
v -736 -256 0
v -752 -256 0
v -752 -240 0
v -736 -240 0
v -720 -256 0
v -736 -256 0
v -736 -240 0
v -720 -240 0
v -704 -256 0
v -720 -256 0
v -720 -240 0
v -704 -240 0
v -688 -256 0
v -704 -256 0
v -704 -240 0
v -688 -240 0
v -928 -272 0
v -944 -272 0
v -944 -256 0
v -928 -256 0
v -912 -272 0
v -928 -272 0
v -928 -256 0
v -912 -256 0
v -896 -272 0
v -912 -272 0
v -912 -256 0
v -896 -256 0
v -736 -272 0
v -752 -272 0
v -752 -256 0
v -736 -256 0
v -720 -272 0
v -736 -272 0
v -736 -256 0
v -720 -256 0
v -704 -272 0
v -720 -272 0
v -720 -256 0
v -704 -256 0
v -688 -272 0
v -704 -272 0
v -704 -256 0
v -688 -256 0
v -928 -288 0
v -944 -288 0
v -944 -272 0
v -928 -272 0
v -912 -288 0
v -928 -288 0
v -928 -272 0
v -912 -272 0
v -896 -288 0
v -912 -288 0
v -912 -272 0
v -896 -272 0
v -736 -288 0
v -752 -288 0
v -752 -272 0
v -736 -272 0
v -720 -288 0
v -736 -288 0
v -736 -272 0
v -720 -272 0
v -704 -288 0
v -720 -288 0
v -720 -272 0
v -704 -272 0
v -688 -288 0
v -704 -288 0
v -704 -272 0
v -688 -272 0
v -672 -288 0
v -688 -288 0
v -688 -272 0
v -672 -272 0
v -928 -304 0
v -944 -304 0
v -944 -288 0
v -928 -288 0
v -912 -304 0
v -928 -304 0
v -928 -288 0
v -912 -288 0
v -896 -304 0
v -912 -304 0
v -912 -288 0
v -896 -288 0
v -720 -304 0
v -736 -304 0
v -736 -288 0
v -720 -288 0
v -704 -304 0
v -720 -304 0
v -720 -288 0
v -704 -288 0
v -688 -304 0
v -704 -304 0
v -704 -288 0
v -688 -288 0
v -672 -304 0
v -688 -304 0
v -688 -288 0
v -672 -288 0
v -928 -320 0
v -944 -320 0
v -944 -304 0
v -928 -304 0
v -912 -320 0
v -928 -320 0
v -928 -304 0
v -912 -304 0
v -896 -320 0
v -912 -320 0
v -912 -304 0
v -896 -304 0
v -720 -320 0
v -736 -320 0
v -736 -304 0
v -720 -304 0
v -704 -320 0
v -720 -320 0
v -720 -304 0
v -704 -304 0
v -688 -320 0
v -704 -320 0
v -704 -304 0
v -688 -304 0
v -672 -320 0
v -688 -320 0
v -688 -304 0
v -672 -304 0
v -928 -336 0
v -944 -336 0
v -944 -320 0
v -928 -320 0
v -912 -336 0
v -928 -336 0
v -928 -320 0
v -912 -320 0
v -896 -336 0
v -912 -336 0
v -912 -320 0
v -896 -320 0
v -720 -336 0
v -736 -336 0
v -736 -320 0
v -720 -320 0
v -704 -336 0
v -720 -336 0
v -720 -320 0
v -704 -320 0
v -688 -336 0
v -704 -336 0
v -704 -320 0
v -688 -320 0
v -672 -336 0
v -688 -336 0
v -688 -320 0
v -672 -320 0
v -928 -352 0
v -944 -352 0
v -944 -336 0
v -928 -336 0
v -912 -352 0
v -928 -352 0
v -928 -336 0
v -912 -336 0
v -896 -352 0
v -912 -352 0
v -912 -336 0
v -896 -336 0
v -736 -352 0
v -752 -352 0
v -752 -336 0
v -736 -336 0
v -720 -352 0
v -736 -352 0
v -736 -336 0
v -720 -336 0
v -704 -352 0
v -720 -352 0
v -720 -336 0
v -704 -336 0
v -688 -352 0
v -704 -352 0
v -704 -336 0
v -688 -336 0
v -672 -352 0
v -688 -352 0
v -688 -336 0
v -672 -336 0
v -928 -368 0
v -944 -368 0
v -944 -352 0
v -928 -352 0
v -912 -368 0
v -928 -368 0
v -928 -352 0
v -912 -352 0
v -896 -368 0
v -912 -368 0
v -912 -352 0
v -896 -352 0
v -736 -368 0
v -752 -368 0
v -752 -352 0
v -736 -352 0
v -720 -368 0
v -736 -368 0
v -736 -352 0
v -720 -352 0
v -704 -368 0
v -720 -368 0
v -720 -352 0
v -704 -352 0
v -688 -368 0
v -704 -368 0
v -704 -352 0
v -688 -352 0
v -672 -368 0
v -688 -368 0
v -688 -352 0
v -672 -352 0
v -928 -384 0
v -944 -384 0
v -944 -368 0
v -928 -368 0
v -912 -384 0
v -928 -384 0
v -928 -368 0
v -912 -368 0
v -896 -384 0
v -912 -384 0
v -912 -368 0
v -896 -368 0
v -736 -384 0
v -752 -384 0
v -752 -368 0
v -736 -368 0
v -720 -384 0
v -736 -384 0
v -736 -368 0
v -720 -368 0
v -704 -384 0
v -720 -384 0
v -720 -368 0
v -704 -368 0
v -688 -384 0
v -704 -384 0
v -704 -368 0
v -688 -368 0
v -928 -400 0
v -944 -400 0
v -944 -384 0
v -928 -384 0
v -912 -400 0
v -928 -400 0
v -928 -384 0
v -912 -384 0
v -896 -400 0
v -912 -400 0
v -912 -384 0
v -896 -384 0
v -736 -400 0
v -752 -400 0
v -752 -384 0
v -736 -384 0
v -720 -400 0
v -736 -400 0
v -736 -384 0
v -720 -384 0
v -704 -400 0
v -720 -400 0
v -720 -384 0
v -704 -384 0
v -928 -416 0
v -944 -416 0
v -944 -400 0
v -928 -400 0
v -912 -416 0
v -928 -416 0
v -928 -400 0
v -912 -400 0
v -896 -416 0
v -912 -416 0
v -912 -400 0
v -896 -400 0
v -736 -416 0
v -752 -416 0
v -752 -400 0
v -736 -400 0
v -720 -416 0
v -736 -416 0
v -736 -400 0
v -720 -400 0
v -704 -416 0
v -720 -416 0
v -720 -400 0
v -704 -400 0

# Texture cooridinates (Count = 52)
vt 0.1581799 0.6788293
vt 0.1744647 0.6788293
vt 0.1744647 0.7090034
vt 0.1581799 0.7090034
vt 0.1406179 0.6788293
vt 0.1569027 0.6788293
vt 0.1569027 0.7090034
vt 0.1406179 0.7090034
vt 0.123056 0.6788293
vt 0.1393407 0.6788293
vt 0.1393407 0.7090034
vt 0.123056 0.7090034
vt 0.1581799 0.6465099
vt 0.1744647 0.6465099
vt 0.1744647 0.676684
vt 0.1581799 0.676684
vt 0.1406179 0.6465099
vt 0.1569027 0.6465099
vt 0.1569027 0.676684
vt 0.1406179 0.676684
vt 0.105494 0.6465099
vt 0.1217788 0.6465099
vt 0.1217788 0.676684
vt 0.105494 0.676684
vt 0.105494 0.6788293
vt 0.1217788 0.6788293
vt 0.1217788 0.7090034
vt 0.105494 0.7090034
vt 0.1406179 0.6141905
vt 0.1569027 0.6141905
vt 0.1569027 0.6443646
vt 0.1406179 0.6443646
vt 0.08793199 0.6788293
vt 0.1042168 0.6788293
vt 0.1042168 0.7090034
vt 0.08793199 0.7090034
vt 0.123056 0.6465099
vt 0.1393407 0.6465099
vt 0.1393407 0.676684
vt 0.123056 0.676684
vt 0.1581799 0.6141905
vt 0.1744647 0.6141905
vt 0.1744647 0.6443646
vt 0.1581799 0.6443646
vt 0.08793199 0.6465099
vt 0.1042168 0.6465099
vt 0.1042168 0.676684
vt 0.08793199 0.676684
vt 0.123056 0.6141905
vt 0.1393407 0.6141905
vt 0.1393407 0.6443646
vt 0.123056 0.6443646

# Normal
vn 0 0 -1

# Mesh description
g Test_Area_mesh_0002

# Faces
f 1/1/1 2/2/1 3/3/1 4/4/1
f 5/5/1 6/6/1 7/7/1 8/8/1
f 9/5/1 10/6/1 11/7/1 12/8/1
f 13/5/1 14/6/1 15/7/1 16/8/1
f 17/5/1 18/6/1 19/7/1 20/8/1
f 21/5/1 22/6/1 23/7/1 24/8/1
f 25/5/1 26/6/1 27/7/1 28/8/1
f 29/9/1 30/10/1 31/11/1 32/12/1
f 33/13/1 34/14/1 35/15/1 36/16/1
f 37/17/1 38/18/1 39/19/1 40/20/1
f 41/17/1 42/18/1 43/19/1 44/20/1
f 45/17/1 46/18/1 47/19/1 48/20/1
f 49/17/1 50/18/1 51/19/1 52/20/1
f 53/17/1 54/18/1 55/19/1 56/20/1
f 57/17/1 58/18/1 59/19/1 60/20/1
f 61/21/1 62/22/1 63/23/1 64/24/1
f 65/5/1 66/6/1 67/7/1 68/8/1
f 69/9/1 70/10/1 71/11/1 72/12/1
f 73/13/1 74/14/1 75/15/1 76/16/1
f 77/17/1 78/18/1 79/19/1 80/20/1
f 81/25/1 82/26/1 83/27/1 84/28/1
f 85/29/1 86/30/1 87/31/1 88/32/1
f 89/29/1 90/30/1 91/31/1 92/32/1
f 93/33/1 94/34/1 95/35/1 96/36/1
f 97/17/1 98/18/1 99/19/1 100/20/1
f 101/17/1 102/18/1 103/19/1 104/20/1
f 105/17/1 106/18/1 107/19/1 108/20/1
f 109/21/1 110/22/1 111/23/1 112/24/1
f 113/9/1 114/10/1 115/11/1 116/12/1
f 117/13/1 118/14/1 119/15/1 120/16/1
f 121/17/1 122/18/1 123/19/1 124/20/1
f 125/37/1 126/38/1 127/39/1 128/40/1
f 129/41/1 130/42/1 131/43/1 132/44/1
f 133/29/1 134/30/1 135/31/1 136/32/1
f 137/33/1 138/34/1 139/35/1 140/36/1
f 141/17/1 142/18/1 143/19/1 144/20/1
f 145/17/1 146/18/1 147/19/1 148/20/1
f 149/21/1 150/22/1 151/23/1 152/24/1
f 153/9/1 154/10/1 155/11/1 156/12/1
f 157/1/1 158/2/1 159/3/1 160/4/1
f 161/45/1 162/46/1 163/47/1 164/48/1
f 165/17/1 166/18/1 167/19/1 168/20/1
f 169/37/1 170/38/1 171/39/1 172/40/1
f 173/41/1 174/42/1 175/43/1 176/44/1
f 177/33/1 178/34/1 179/35/1 180/36/1
f 181/17/1 182/18/1 183/19/1 184/20/1
f 185/17/1 186/18/1 187/19/1 188/20/1
f 189/37/1 190/38/1 191/39/1 192/40/1
f 193/13/1 194/14/1 195/15/1 196/16/1
f 197/17/1 198/18/1 199/19/1 200/20/1
f 201/17/1 202/18/1 203/19/1 204/20/1
f 205/37/1 206/38/1 207/39/1 208/40/1
f 209/41/1 210/42/1 211/43/1 212/44/1
f 213/29/1 214/30/1 215/31/1 216/32/1
f 217/33/1 218/34/1 219/35/1 220/36/1
f 221/21/1 222/22/1 223/23/1 224/24/1
f 225/9/1 226/10/1 227/11/1 228/12/1
f 229/13/1 230/14/1 231/15/1 232/16/1
f 233/17/1 234/18/1 235/19/1 236/20/1
f 237/25/1 238/26/1 239/27/1 240/28/1
f 241/49/1 242/50/1 243/51/1 244/52/1
f 245/13/1 246/14/1 247/15/1 248/16/1
f 249/17/1 250/18/1 251/19/1 252/20/1
f 253/37/1 254/38/1 255/39/1 256/40/1
f 257/13/1 258/14/1 259/15/1 260/16/1
f 261/17/1 262/18/1 263/19/1 264/20/1
f 265/37/1 266/38/1 267/39/1 268/40/1
f 269/41/1 270/42/1 271/43/1 272/44/1
f 273/33/1 274/34/1 275/35/1 276/36/1
f 277/21/1 278/22/1 279/23/1 280/24/1
f 281/9/1 282/10/1 283/11/1 284/12/1
f 285/13/1 286/14/1 287/15/1 288/16/1
f 289/17/1 290/18/1 291/19/1 292/20/1
f 293/37/1 294/38/1 295/39/1 296/40/1
f 297/13/1 298/14/1 299/15/1 300/16/1
f 301/17/1 302/18/1 303/19/1 304/20/1
f 305/21/1 306/22/1 307/23/1 308/24/1
f 309/9/1 310/10/1 311/11/1 312/12/1
f 313/13/1 314/14/1 315/15/1 316/16/1
f 317/17/1 318/18/1 319/19/1 320/20/1
f 321/37/1 322/38/1 323/39/1 324/40/1
f 325/13/1 326/14/1 327/15/1 328/16/1
f 329/17/1 330/18/1 331/19/1 332/20/1
f 333/17/1 334/18/1 335/19/1 336/20/1
f 337/37/1 338/38/1 339/39/1 340/40/1
f 341/13/1 342/14/1 343/15/1 344/16/1
f 345/17/1 346/18/1 347/19/1 348/20/1
f 349/37/1 350/38/1 351/39/1 352/40/1
f 353/41/1 354/42/1 355/43/1 356/44/1
f 357/33/1 358/34/1 359/35/1 360/36/1
f 361/17/1 362/18/1 363/19/1 364/20/1
f 365/21/1 366/22/1 367/23/1 368/24/1
f 369/9/1 370/10/1 371/11/1 372/12/1
f 373/13/1 374/14/1 375/15/1 376/16/1
f 377/17/1 378/18/1 379/19/1 380/20/1
f 381/37/1 382/38/1 383/39/1 384/40/1
f 385/13/1 386/14/1 387/15/1 388/16/1
f 389/17/1 390/18/1 391/19/1 392/20/1
f 393/17/1 394/18/1 395/19/1 396/20/1
f 397/37/1 398/38/1 399/39/1 400/40/1
f 401/13/1 402/14/1 403/15/1 404/16/1
f 405/17/1 406/18/1 407/19/1 408/20/1
f 409/37/1 410/38/1 411/39/1 412/40/1
f 413/41/1 414/42/1 415/43/1 416/44/1
f 417/33/1 418/34/1 419/35/1 420/36/1
f 421/17/1 422/18/1 423/19/1 424/20/1
f 425/37/1 426/38/1 427/39/1 428/40/1
f 429/13/1 430/14/1 431/15/1 432/16/1
f 433/17/1 434/18/1 435/19/1 436/20/1
f 437/37/1 438/38/1 439/39/1 440/40/1
f 441/1/1 442/2/1 443/3/1 444/4/1
f 445/45/1 446/46/1 447/47/1 448/48/1
f 449/17/1 450/18/1 451/19/1 452/20/1
f 453/37/1 454/38/1 455/39/1 456/40/1
f 457/13/1 458/14/1 459/15/1 460/16/1
f 461/17/1 462/18/1 463/19/1 464/20/1
f 465/37/1 466/38/1 467/39/1 468/40/1
f 469/1/1 470/2/1 471/3/1 472/4/1
f 473/45/1 474/46/1 475/47/1 476/48/1
f 477/17/1 478/18/1 479/19/1 480/20/1
f 481/17/1 482/18/1 483/19/1 484/20/1
f 485/37/1 486/38/1 487/39/1 488/40/1
f 489/13/1 490/14/1 491/15/1 492/16/1
f 493/17/1 494/18/1 495/19/1 496/20/1
f 497/37/1 498/38/1 499/39/1 500/40/1
f 501/13/1 502/14/1 503/15/1 504/16/1
f 505/17/1 506/18/1 507/19/1 508/20/1
f 509/17/1 510/18/1 511/19/1 512/20/1
f 513/25/1 514/26/1 515/27/1 516/28/1
f 517/49/1 518/50/1 519/51/1 520/52/1
f 521/13/1 522/14/1 523/15/1 524/16/1
f 525/17/1 526/18/1 527/19/1 528/20/1
f 529/37/1 530/38/1 531/39/1 532/40/1
f 533/13/1 534/14/1 535/15/1 536/16/1
f 537/17/1 538/18/1 539/19/1 540/20/1
f 541/25/1 542/26/1 543/27/1 544/28/1
f 545/49/1 546/50/1 547/51/1 548/52/1
f 549/13/1 550/14/1 551/15/1 552/16/1
f 553/17/1 554/18/1 555/19/1 556/20/1
f 557/37/1 558/38/1 559/39/1 560/40/1
f 561/13/1 562/14/1 563/15/1 564/16/1
f 565/17/1 566/18/1 567/19/1 568/20/1
f 569/37/1 570/38/1 571/39/1 572/40/1
f 573/41/1 574/42/1 575/43/1 576/44/1
f 577/29/1 578/30/1 579/31/1 580/32/1
f 581/49/1 582/50/1 583/51/1 584/52/1
f 585/41/1 586/42/1 587/43/1 588/44/1
f 589/29/1 590/30/1 591/31/1 592/32/1
f 593/49/1 594/50/1 595/51/1 596/52/1

