# Tiled2Unity generated file. Do not modify by hand.
# Wavefront file for 'house_inside_mesh_0002.obj'

# Vertices (Count = 164)
v -304 -96 0
v -320 -96 0
v -320 -80 0
v -304 -80 0
v -288 -96 0
v -304 -96 0
v -304 -80 0
v -288 -80 0
v -272 -96 0
v -288 -96 0
v -288 -80 0
v -272 -80 0
v -256 -96 0
v -272 -96 0
v -272 -80 0
v -256 -80 0
v -240 -96 0
v -256 -96 0
v -256 -80 0
v -240 -80 0
v -304 -112 0
v -320 -112 0
v -320 -96 0
v -304 -96 0
v -288 -112 0
v -304 -112 0
v -304 -96 0
v -288 -96 0
v -272 -112 0
v -288 -112 0
v -288 -96 0
v -272 -96 0
v -256 -112 0
v -272 -112 0
v -272 -96 0
v -256 -96 0
v -240 -112 0
v -256 -112 0
v -256 -96 0
v -240 -96 0
v -64 -112 0
v -80 -112 0
v -80 -96 0
v -64 -96 0
v -48 -112 0
v -64 -112 0
v -64 -96 0
v -48 -96 0
v -32 -112 0
v -48 -112 0
v -48 -96 0
v -32 -96 0
v -16 -112 0
v -32 -112 0
v -32 -96 0
v -16 -96 0
v -304 -128 0
v -320 -128 0
v -320 -112 0
v -304 -112 0
v -288 -128 0
v -304 -128 0
v -304 -112 0
v -288 -112 0
v -272 -128 0
v -288 -128 0
v -288 -112 0
v -272 -112 0
v -256 -128 0
v -272 -128 0
v -272 -112 0
v -256 -112 0
v -240 -128 0
v -256 -128 0
v -256 -112 0
v -240 -112 0
v -64 -128 0
v -80 -128 0
v -80 -112 0
v -64 -112 0
v -48 -128 0
v -64 -128 0
v -64 -112 0
v -48 -112 0
v -32 -128 0
v -48 -128 0
v -48 -112 0
v -32 -112 0
v -16 -128 0
v -32 -128 0
v -32 -112 0
v -16 -112 0
v -304 -144 0
v -320 -144 0
v -320 -128 0
v -304 -128 0
v -288 -144 0
v -304 -144 0
v -304 -128 0
v -288 -128 0
v -272 -144 0
v -288 -144 0
v -288 -128 0
v -272 -128 0
v -256 -144 0
v -272 -144 0
v -272 -128 0
v -256 -128 0
v -240 -144 0
v -256 -144 0
v -256 -128 0
v -240 -128 0
v -64 -144 0
v -80 -144 0
v -80 -128 0
v -64 -128 0
v -48 -144 0
v -64 -144 0
v -64 -128 0
v -48 -128 0
v -32 -144 0
v -48 -144 0
v -48 -128 0
v -32 -128 0
v -16 -144 0
v -32 -144 0
v -32 -128 0
v -16 -128 0
v -304 -160 0
v -320 -160 0
v -320 -144 0
v -304 -144 0
v -288 -160 0
v -304 -160 0
v -304 -144 0
v -288 -144 0
v -272 -160 0
v -288 -160 0
v -288 -144 0
v -272 -144 0
v -256 -160 0
v -272 -160 0
v -272 -144 0
v -256 -144 0
v -240 -160 0
v -256 -160 0
v -256 -144 0
v -240 -144 0
v -64 -160 0
v -80 -160 0
v -80 -144 0
v -64 -144 0
v -48 -160 0
v -64 -160 0
v -64 -144 0
v -48 -144 0
v -32 -160 0
v -48 -160 0
v -48 -144 0
v -32 -144 0
v -16 -160 0
v -32 -160 0
v -32 -144 0
v -16 -144 0

# Texture cooridinates (Count = 72)
vt 0.2108659 0.6465099
vt 0.2271507 0.6465099
vt 0.2271507 0.676684
vt 0.2108659 0.676684
vt 0.1933039 0.6465099
vt 0.2095887 0.6465099
vt 0.2095887 0.676684
vt 0.1933039 0.676684
vt 0.1757419 0.6465099
vt 0.1920267 0.6465099
vt 0.1920267 0.676684
vt 0.1757419 0.676684
vt 0.2108659 0.6141905
vt 0.2271507 0.6141905
vt 0.2271507 0.6443646
vt 0.2108659 0.6443646
vt 0.1933039 0.6141905
vt 0.2095887 0.6141905
vt 0.2095887 0.6443646
vt 0.1933039 0.6443646
vt 0.1757419 0.6141905
vt 0.1920267 0.6141905
vt 0.1920267 0.6443646
vt 0.1757419 0.6443646
vt 0.2108659 0.743468
vt 0.2271507 0.743468
vt 0.2271507 0.7736422
vt 0.2108659 0.7736422
vt 0.1933039 0.743468
vt 0.2095887 0.743468
vt 0.2095887 0.7736422
vt 0.1933039 0.7736422
vt 0.1757419 0.743468
vt 0.1920267 0.743468
vt 0.1920267 0.7736422
vt 0.1757419 0.7736422
vt 0.2108659 0.7111487
vt 0.2271507 0.7111487
vt 0.2271507 0.7413228
vt 0.2108659 0.7413228
vt 0.1933039 0.7111487
vt 0.2095887 0.7111487
vt 0.2095887 0.7413228
vt 0.1933039 0.7413228
vt 0.1757419 0.7111487
vt 0.1920267 0.7111487
vt 0.1920267 0.7413228
vt 0.1757419 0.7413228
vt 0.2108659 0.5818712
vt 0.2271507 0.5818712
vt 0.2271507 0.6120452
vt 0.2108659 0.6120452
vt 0.1933039 0.5818712
vt 0.2095887 0.5818712
vt 0.2095887 0.6120452
vt 0.1933039 0.6120452
vt 0.1757419 0.5818712
vt 0.1920267 0.5818712
vt 0.1920267 0.6120452
vt 0.1757419 0.6120452
vt 0.2108659 0.6788293
vt 0.2271507 0.6788293
vt 0.2271507 0.7090034
vt 0.2108659 0.7090034
vt 0.1933039 0.6788293
vt 0.2095887 0.6788293
vt 0.2095887 0.7090034
vt 0.1933039 0.7090034
vt 0.1757419 0.6788293
vt 0.1920267 0.6788293
vt 0.1920267 0.7090034
vt 0.1757419 0.7090034

# Normal
vn 0 0 -1

# Mesh description
g house_inside_mesh_0002

# Faces
f 1/1/1 2/2/1 3/3/1 4/4/1
f 5/5/1 6/6/1 7/7/1 8/8/1
f 9/5/1 10/6/1 11/7/1 12/8/1
f 13/5/1 14/6/1 15/7/1 16/8/1
f 17/9/1 18/10/1 19/11/1 20/12/1
f 21/13/1 22/14/1 23/15/1 24/16/1
f 25/17/1 26/18/1 27/19/1 28/20/1
f 29/17/1 30/18/1 31/19/1 32/20/1
f 33/17/1 34/18/1 35/19/1 36/20/1
f 37/21/1 38/22/1 39/23/1 40/24/1
f 41/25/1 42/26/1 43/27/1 44/28/1
f 45/29/1 46/30/1 47/31/1 48/32/1
f 49/29/1 50/30/1 51/31/1 52/32/1
f 53/33/1 54/34/1 55/35/1 56/36/1
f 57/13/1 58/14/1 59/15/1 60/16/1
f 61/17/1 62/18/1 63/19/1 64/20/1
f 65/17/1 66/18/1 67/19/1 68/20/1
f 69/17/1 70/18/1 71/19/1 72/20/1
f 73/21/1 74/22/1 75/23/1 76/24/1
f 77/37/1 78/38/1 79/39/1 80/40/1
f 81/41/1 82/42/1 83/43/1 84/44/1
f 85/41/1 86/42/1 87/43/1 88/44/1
f 89/45/1 90/46/1 91/47/1 92/48/1
f 93/13/1 94/14/1 95/15/1 96/16/1
f 97/17/1 98/18/1 99/19/1 100/20/1
f 101/17/1 102/18/1 103/19/1 104/20/1
f 105/17/1 106/18/1 107/19/1 108/20/1
f 109/21/1 110/22/1 111/23/1 112/24/1
f 113/37/1 114/38/1 115/39/1 116/40/1
f 117/41/1 118/42/1 119/43/1 120/44/1
f 121/41/1 122/42/1 123/43/1 124/44/1
f 125/45/1 126/46/1 127/47/1 128/48/1
f 129/49/1 130/50/1 131/51/1 132/52/1
f 133/53/1 134/54/1 135/55/1 136/56/1
f 137/53/1 138/54/1 139/55/1 140/56/1
f 141/53/1 142/54/1 143/55/1 144/56/1
f 145/57/1 146/58/1 147/59/1 148/60/1
f 149/61/1 150/62/1 151/63/1 152/64/1
f 153/65/1 154/66/1 155/67/1 156/68/1
f 157/65/1 158/66/1 159/67/1 160/68/1
f 161/69/1 162/70/1 163/71/1 164/72/1

