# Tiled2Unity generated file. Do not modify by hand.
# Wavefront file for 'house_inside_mesh_0004.obj'

# Vertices (Count = 44)
v -64 -80 0
v -80 -80 0
v -80 -64 0
v -64 -64 0
v -48 -80 0
v -64 -80 0
v -64 -64 0
v -48 -64 0
v -32 -80 0
v -48 -80 0
v -48 -64 0
v -32 -64 0
v -16 -80 0
v -32 -80 0
v -32 -64 0
v -16 -64 0
v -256 -96 0
v -272 -96 0
v -272 -80 0
v -256 -80 0
v -64 -96 0
v -80 -96 0
v -80 -80 0
v -64 -80 0
v -48 -96 0
v -64 -96 0
v -64 -80 0
v -48 -80 0
v -32 -96 0
v -48 -96 0
v -48 -80 0
v -32 -80 0
v -16 -96 0
v -32 -96 0
v -32 -80 0
v -16 -80 0
v -304 -112 0
v -320 -112 0
v -320 -96 0
v -304 -96 0
v -272 -176 0
v -288 -176 0
v -288 -160 0
v -272 -160 0

# Texture cooridinates (Count = 36)
vt 0.2284279 0.7757875
vt 0.2447126 0.7757875
vt 0.2447126 0.8059616
vt 0.2284279 0.8059616
vt 0.1757419 0.8404263
vt 0.1920267 0.8404263
vt 0.1920267 0.8706003
vt 0.1757419 0.8706003
vt 0.2108659 0.8404263
vt 0.2271507 0.8404263
vt 0.2271507 0.8706003
vt 0.2108659 0.8706003
vt 0.1757419 0.8081068
vt 0.1920267 0.8081068
vt 0.1920267 0.838281
vt 0.1757419 0.838281
vt 0.2635518 0.8727456
vt 0.2798366 0.8727456
vt 0.2798366 0.9029198
vt 0.2635518 0.9029198
vt 0.2108659 0.7757875
vt 0.2271507 0.7757875
vt 0.2271507 0.8059616
vt 0.2108659 0.8059616
vt 0.1933039 0.8404263
vt 0.2095887 0.8404263
vt 0.2095887 0.8706003
vt 0.1933039 0.8706003
vt 0.2635518 0.9373844
vt 0.2798366 0.9373844
vt 0.2798366 0.9675586
vt 0.2635518 0.9675586
vt 0.6499155 0.9373844
vt 0.6662002 0.9373844
vt 0.6662002 0.9675586
vt 0.6499155 0.9675586

# Normal
vn 0 0 -1

# Mesh description
g house_inside_mesh_0004

# Faces
f 1/1/1 2/2/1 3/3/1 4/4/1
f 5/5/1 6/6/1 7/7/1 8/8/1
f 9/9/1 10/10/1 11/11/1 12/12/1
f 13/13/1 14/14/1 15/15/1 16/16/1
f 17/17/1 18/18/1 19/19/1 20/20/1
f 21/21/1 22/22/1 23/23/1 24/24/1
f 25/25/1 26/26/1 27/27/1 28/28/1
f 29/9/1 30/10/1 31/11/1 32/12/1
f 33/13/1 34/14/1 35/15/1 36/16/1
f 37/29/1 38/30/1 39/31/1 40/32/1
f 41/33/1 42/34/1 43/35/1 44/36/1

